<svg width="76" height="76" viewBox="0 0 76 76" fill="none" xmlns="http://www.w3.org/2000/svg">
<path d="M74.2187 37.911C74.2206 42.8089 73.2265 47.6561 71.2969 52.1579C69.3672 56.6598 66.5423 60.7222 62.9938 64.0983H13.2732C12.3293 63.27 11.437 62.3847 10.6013 61.4472L10.3579 61.1503C8.27978 58.6774 1.54665 49.9047 1.89697 37.9021C2.37493 21.28 16.3488 1.74268 38.0534 1.74268C42.8029 1.74268 47.506 2.67822 51.8939 4.49588C56.2819 6.31354 60.2689 8.97773 63.6272 12.3363C66.9855 15.6949 69.6493 19.6821 71.4666 24.0702C73.2839 28.4583 74.2191 33.1614 74.2187 37.911Z" fill="#84D0F7"/>
<path d="M37.991 18.7477C41.6489 18.7477 44.6142 15.7823 44.6142 12.1244C44.6142 8.46644 41.6489 5.5011 37.991 5.5011C34.333 5.5011 31.3677 8.46644 31.3677 12.1244C31.3677 15.7823 34.333 18.7477 37.991 18.7477Z" fill="#2D2D2D"/>
<path opacity="0.2" d="M37.991 18.7477C41.6489 18.7477 44.6142 15.7823 44.6142 12.1244C44.6142 8.46644 41.6489 5.5011 37.991 5.5011C34.333 5.5011 31.3677 8.46644 31.3677 12.1244C31.3677 15.7823 34.333 18.7477 37.991 18.7477Z" fill="#050505"/>
<path d="M65.7458 61.1562C64.8851 62.1865 63.9663 63.1668 62.9938 64.0923C56.2706 70.4962 47.3413 74.0679 38.0563 74.0673C30.3554 74.0673 23.9251 71.3954 19.2166 68.495C17.113 67.2032 15.1262 65.73 13.2791 64.0923C12.3331 63.2651 11.4407 62.3787 10.6072 61.4382C10.536 61.3581 10.4499 61.2631 10.3608 61.1414C12.5827 58.9152 15.1097 57.016 17.8658 55.5007C20.4659 54.0621 23.222 52.9256 26.0804 52.1134C30.0585 55.6284 34.0317 59.1414 37.9999 62.6525C42.0176 59.1375 46.0304 55.6244 50.0382 52.1134C50.1213 52.1401 50.2074 52.1609 50.2905 52.1847C50.3175 52.1984 50.3466 52.2075 50.3766 52.2114C53.107 53.0164 55.7434 54.1111 58.2408 55.477C60.9954 57.0103 63.5217 58.922 65.7458 61.1562Z" fill="#AA392D"/>
<path d="M50.0263 52.1431C46.0165 55.6581 42.0077 59.1711 37.9999 62.6822C34.0316 59.1672 30.0584 55.6542 26.0803 52.1431C26.6769 51.9064 27.2999 51.7429 27.9358 51.6562C31.2845 54.526 34.6333 57.3958 37.982 60.2656C41.3724 57.3899 44.7637 54.5201 48.156 51.6562C48.7959 51.747 49.4233 51.9103 50.0263 52.1431Z" fill="#7C211A"/>
<path d="M48.156 51.6563C44.7656 54.5261 41.3743 57.3959 37.982 60.2657C34.6293 57.3959 31.2806 54.5261 27.9358 51.6563C28.3663 51.5524 28.8264 51.4544 29.2717 51.3594C29.717 51.2644 30.1059 51.1961 30.5097 51.1308C30.7104 50.6316 30.875 50.1187 31.0025 49.596C31.0678 49.2991 31.1213 49.0349 31.1658 48.7736C31.5751 49.1077 32.0055 49.4151 32.4542 49.6939C32.884 49.9603 33.328 50.2032 33.7842 50.4213C35.0493 50.9962 36.4128 51.3237 37.8009 51.3861C39.3422 51.3513 40.8591 50.9943 42.2541 50.3382C42.7559 50.0853 43.2444 49.8069 43.7177 49.5039C44.1749 49.2071 44.5519 48.9102 44.8369 48.6846C44.923 49.0675 45.0269 49.4713 45.1575 49.8958C45.2881 50.3204 45.4247 50.7478 45.5731 51.1308C45.9264 51.1902 46.2827 51.2555 46.6538 51.3327C47.1743 51.4297 47.675 51.5375 48.156 51.6563Z" fill="#EAB198"/>
<path opacity="0.2" d="M50.3647 52.25C50.1154 52.5291 49.863 52.8052 49.6018 53.0634C49.0231 53.6499 48.4008 54.1918 47.7404 54.6844C46.8733 55.3341 45.9265 55.8699 44.923 56.2786C44.2903 56.5413 43.6329 56.7402 42.9607 56.8723C42.369 56.9862 41.767 57.0379 41.1646 57.0267C39.9821 57.0051 38.8141 56.7625 37.7208 56.3112L37.5249 56.2341C36.6547 55.8599 35.83 55.3878 35.0668 54.8269C33.6275 53.7538 32.3584 52.4698 31.3024 51.018C31.1332 50.7923 30.9699 50.5578 30.8096 50.3144C30.8393 50.2105 30.8719 50.1066 30.8986 49.9967C31.0113 49.6005 31.1005 49.1981 31.1658 48.7914C31.341 48.9369 31.5191 49.0734 31.7002 49.2041C32.1828 49.5562 32.6897 49.8737 33.2172 50.1541C33.2677 50.1778 33.3211 50.2105 33.3716 50.2372L33.5616 50.3352L33.7843 50.4391L33.9119 50.4984L34.0247 50.5489L34.1613 50.6083L34.2919 50.6617C34.3125 50.6727 34.3344 50.6807 34.3572 50.6855C34.407 50.711 34.4586 50.7328 34.5116 50.7508L34.7135 50.825L34.9302 50.8963L34.9747 50.9141L35.1321 50.9616C35.2033 50.9883 35.2805 51.012 35.3577 51.0328C35.394 51.0385 35.4298 51.0475 35.4646 51.0595L35.6724 51.1159C36.1146 51.2303 36.5653 51.3087 37.0202 51.3505C37.0671 51.3603 37.1148 51.3652 37.1627 51.3653C37.1933 51.3683 37.2241 51.3683 37.2547 51.3653C37.32 51.3653 37.3764 51.3653 37.4418 51.3653C37.5071 51.3653 37.5457 51.3653 37.605 51.3802H37.9554C38.9362 51.3748 39.9101 51.2145 40.841 50.9052C40.8469 50.9063 40.8529 50.9063 40.8588 50.9052C40.8973 50.895 40.935 50.8821 40.9716 50.8666C41.1646 50.8102 41.3546 50.73 41.5505 50.6587L41.601 50.632C41.6871 50.5994 41.7643 50.5608 41.8504 50.5281L41.9157 50.5014C42.7812 50.1111 43.6015 49.6273 44.3619 49.0586L44.8429 48.6875C44.9349 49.0913 45.0447 49.5277 45.1813 49.9819C45.306 50.3916 45.4425 50.7775 45.5791 51.1338L45.9057 51.1931L46.2293 51.2525L46.5499 51.3089C46.6271 51.3297 46.7072 51.3416 46.7904 51.3623C46.8434 51.3704 46.8959 51.3813 46.9477 51.395C47.3514 51.4781 47.7552 51.5642 48.15 51.6622C48.7824 51.8106 49.3999 51.9739 50.0204 52.1491L50.3647 52.25Z" fill="black"/>
<path d="M55.2781 35.5508C55.2306 37.0916 54.248 38.6502 53.1466 39.2232C52.9988 39.3014 52.8423 39.3622 52.6805 39.4043H52.6449C52.4455 39.4531 52.2381 39.4591 52.0363 39.4221C51.8223 39.3791 51.6199 39.2911 51.4425 39.1638L51.3594 39.1015C51.2377 39.0031 51.1263 38.8927 51.0269 38.7719C50.2342 37.816 49.9106 36.0199 50.4331 34.589C50.6478 34.0337 50.9741 33.5285 51.392 33.1046C51.745 32.7256 52.2011 32.4583 52.7042 32.3357C52.9364 32.2882 53.1757 32.2882 53.4078 32.3357C54.7141 32.5851 55.3167 34.2624 55.2781 35.5508Z" fill="#EAB198"/>
<path opacity="0.3" d="M55.278 35.5508C55.2275 37.0916 54.2449 38.6502 53.1435 39.2291C52.9955 39.3031 52.8403 39.3618 52.6804 39.4042H52.6418C52.4469 39.4482 52.2455 39.4552 52.048 39.425C51.834 39.3805 51.6317 39.2915 51.4543 39.1638L51.3711 39.0985C51.2488 39.002 51.1373 38.8925 51.0386 38.7719C50.243 37.816 49.9194 36.0199 50.4449 34.586C50.6577 34.0305 50.9832 33.5251 51.4008 33.1016C51.6668 32.8269 51.9833 32.6061 52.333 32.4514C52.4561 32.3985 52.5845 32.3587 52.716 32.3327C52.9481 32.2851 53.1875 32.2851 53.4196 32.3327C53.4549 32.3388 53.4896 32.3477 53.5235 32.3594C54.7436 32.6741 55.3166 34.301 55.278 35.5508Z" fill="black"/>
<path d="M25.0621 38.7779C24.9409 38.9257 24.8012 39.0574 24.6465 39.1697C24.4687 39.2968 24.2665 39.3857 24.0527 39.431C23.8554 39.4635 23.6536 39.4564 23.459 39.4102H23.4234C23.2615 39.3681 23.1051 39.3073 22.9573 39.2291C21.8559 38.6562 20.8792 37.0976 20.8257 35.5568C20.7871 34.2683 21.3898 32.588 22.699 32.3268C23.4442 32.1783 24.1537 32.5376 24.7148 33.1016C25.1327 33.5255 25.4591 34.0308 25.6737 34.586C26.1813 36.0258 25.8548 37.8219 25.0621 38.7779Z" fill="#EAB198"/>
<path d="M52.7013 32.3268C52.7013 32.4455 52.7013 32.5672 52.6805 32.6919C52.5388 34.8813 52.0901 37.0399 51.3475 39.1044C49.967 42.9905 47.6425 46.4343 44.8489 48.6816L44.368 49.0527C43.6076 49.6214 42.7873 50.1052 41.9217 50.4955L41.8564 50.5222C41.7703 50.5549 41.6931 50.5935 41.607 50.6261L41.5566 50.6528C41.3606 50.7241 41.1706 50.8043 40.9777 50.8607C40.941 50.8762 40.9033 50.8891 40.8648 50.8993C40.859 50.9004 40.8529 50.9004 40.847 50.8993C39.9162 51.2086 38.9423 51.3689 37.9614 51.3743H37.6111C37.5517 51.3743 37.5013 51.3743 37.4478 51.3594C37.3944 51.3446 37.3261 51.3594 37.2608 51.3594C37.2302 51.3624 37.1994 51.3624 37.1688 51.3594C37.1209 51.3593 37.0731 51.3544 37.0263 51.3446C36.5714 51.3028 36.1207 51.2244 35.6784 51.11L35.4706 51.0536C35.4359 51.0416 35.4001 51.0326 35.3638 51.0269C35.2866 51.0061 35.2094 50.9824 35.1381 50.9557L34.9808 50.9082L34.9363 50.8904L34.7195 50.8191L34.5177 50.7449C34.4647 50.7269 34.4131 50.7051 34.3633 50.6796C34.3405 50.6748 34.3185 50.6668 34.298 50.6558L34.1673 50.6024L34.0308 50.543L33.918 50.4925L33.7903 50.4332L33.5677 50.3293L33.3777 50.2313C33.3272 50.2046 33.2738 50.1719 33.2233 50.1482C32.6958 49.8678 32.1888 49.5503 31.7063 49.1982C31.5252 49.0675 31.347 48.931 31.1719 48.7855C30.7081 48.4187 30.2688 48.022 29.8567 47.598C29.4213 47.176 29.0109 46.729 28.6277 46.2591C26.8344 44.0487 25.4619 41.5281 24.5783 38.8224C23.9945 37.0631 23.6169 35.2419 23.4531 33.3955C23.4264 33.0986 23.4086 32.7839 23.3967 32.4782C23.3407 31.4007 23.3724 30.3205 23.4917 29.2482C23.5392 28.8118 23.6045 28.3843 23.6817 27.9538C23.7765 27.4205 23.8983 26.8923 24.0469 26.3714C24.386 25.0862 24.8432 23.835 25.4125 22.6338C26.6683 19.9975 28.5 17.5157 30.7503 15.7522C32.8284 14.1461 35.2539 13.1308 38.003 13.1249C42.4205 13.1041 46.0809 15.7018 48.64 19.196C49.6792 20.6171 50.5378 22.1618 51.1961 23.7946C51.3653 24.2043 51.5227 24.6139 51.6652 25.0296C51.9906 25.9843 52.2456 26.9617 52.4281 27.9538C52.4994 28.3694 52.5647 28.7939 52.6092 29.2155C52.7171 30.2489 52.7479 31.2888 52.7013 32.3268Z" fill="#EAB198"/>
<path opacity="0.2" d="M48.0936 33.2797C46.6241 33.2381 44.2936 31.9972 42.9963 31.1184C39.1874 28.5386 36.2365 23.6312 34.1079 23.5333C33.88 23.5218 33.652 23.5551 33.4369 23.6312C32.4751 23.9875 32.1485 25.2462 31.8041 26.4634C31.3796 27.9656 31.1005 28.9364 30.9135 29.5598C30.8927 27.8498 30.8601 25.9973 31.8961 23.3254C32.2079 22.5387 32.5938 21.7312 33.3805 21.4433C33.7576 21.3008 34.9926 21.0009 38.1305 23.9043C38.9574 24.6512 39.7155 25.4709 40.3957 26.3536C42.9518 29.6934 42.9785 29.9517 44.2758 31.1036C46.1402 32.769 47.2713 32.6859 48.0936 33.2797Z" fill="black"/>
<path d="M57.6293 50.6974C57.4928 51.0626 54.8951 50.9646 52.6359 49.5455C50.0056 47.8919 48.0403 44.5669 47.9304 41.0965C47.8176 37.4449 49.8304 35.9873 48.6964 33.9952C48.5498 33.7184 48.3477 33.4748 48.1026 33.2798C47.2892 32.686 46.1581 32.7691 44.3026 31.1185C43.0053 29.9637 42.9786 29.7054 40.4225 26.3685C39.7423 25.4859 38.9842 24.6662 38.1573 23.9193C35.0104 21.0159 33.7754 21.3157 33.4073 21.4582C32.6265 21.7551 32.2406 22.5537 31.9229 23.3404C30.8868 25.9915 30.9195 27.8529 30.9403 29.5748C30.9403 31.0354 30.9581 32.3832 30.2871 34.0101C28.8621 37.4598 26.3179 37.5577 26.1754 40.6155C26.0893 42.3344 26.8761 42.7115 26.8315 44.9529C26.8315 45.707 26.7603 48.5154 25.0028 50.3946C22.0667 53.5326 16.1618 52.2501 16.0965 51.5821C16.0312 50.9141 21.5501 50.9884 22.6278 48.1265C23.5006 45.796 20.2528 44.0385 20.707 40.0604C20.9415 38.0298 21.8678 37.8665 22.6278 35.3609C23.747 31.6499 22.2507 30.2546 22.5061 26.8257C22.9484 20.8348 28.1467 15.7315 32.8046 13.7632C34.237 13.1419 35.7593 12.753 37.3142 12.6113C43.5129 12.0829 48.1739 15.877 49.8839 17.5068C51.1337 18.6943 54.2657 21.6868 54.7793 26.0479C54.989 28.0038 54.8888 29.9805 54.4825 31.9052C53.6542 36.4118 52.1965 36.9135 51.8907 40.5443C51.769 41.9901 51.5345 44.8015 53.1406 47.1646C54.8565 49.7088 57.7718 50.3026 57.6293 50.6974Z" fill="#2D2D2D"/>
</svg>
